<?xml version="1.0" standalone="no"?>
<!DOCTYPE svg PUBLIC "-//W3C//DTD SVG 20010904//EN"
 "http://www.w3.org/TR/2001/REC-SVG-20010904/DTD/svg10.dtd">
<svg version="1.0" xmlns="http://www.w3.org/2000/svg"
 width="222.000000pt" height="102.000000pt" viewBox="0 0 222.000000 102.000000"
 preserveAspectRatio="xMidYMid meet">

<g transform="translate(0.000000,102.000000) scale(0.100000,-0.100000)"
fill="#000000" stroke="none">
<path d="M1590 1013 c-26 -9 -60 -46 -60 -64 0 -9 7 -22 15 -29 8 -7 15 -17
15 -23 0 -6 7 -18 16 -28 14 -16 14 -20 -7 -48 -22 -31 -23 -32 -9 -138 20
-154 18 -177 -22 -265 l-36 -76 -59 -7 c-88 -10 -114 -27 -31 -21 93 7 121 24
146 88 12 29 24 64 27 78 6 23 10 25 75 27 81 2 76 10 85 -127 6 -82 3 -109
-19 -199 -14 -57 -28 -106 -31 -110 -4 -3 -3 30 2 74 10 99 7 191 -9 274 l-13
63 -59 -87 c-32 -47 -68 -92 -80 -100 -25 -15 -146 -29 -176 -20 -11 3 -20 15
-20 26 0 14 -7 19 -26 19 -20 0 -29 -9 -45 -45 l-20 -45 -627 -2 -627 -3 640
-5 640 -5 25 21 c20 17 43 23 123 27 53 4 106 11 116 16 10 6 41 44 70 86 29
42 55 74 58 71 3 -3 12 -40 19 -81 11 -64 11 -95 0 -185 -16 -130 -13 -156 21
-165 34 -8 93 5 93 21 0 11 41 14 213 17 l212 2 -227 3 c-125 1 -238 6 -252
12 -25 9 -25 10 -12 48 31 87 38 154 31 289 -5 91 -11 133 -19 132 -22 -3 -76
23 -76 37 0 10 8 9 33 -6 17 -11 40 -20 51 -20 15 0 17 6 14 33 -3 17 -8 40
-13 50 -7 16 2 17 106 18 136 2 128 1 159 18 62 35 68 47 71 171 l4 115 -150
3 -150 2 -42 -39 c-25 -22 -43 -48 -43 -60 0 -11 -6 -21 -13 -21 -18 0 -17
118 1 125 7 3 11 9 7 14 -3 6 -12 8 -19 5 -8 -3 -25 6 -39 20 -27 27 -31 28
-57 19z m48 -25 c18 -18 15 -28 -8 -28 -12 0 -32 -7 -45 -16 -23 -15 -45 -12
-45 5 0 4 9 17 20 29 23 24 59 29 78 10z m36 -71 c11 -40 7 -57 -13 -57 -29 0
-53 28 -45 54 13 41 47 42 58 3z m366 13 c0 -6 -49 -10 -126 -10 -81 0 -123 4
-119 10 4 6 57 10 126 10 73 0 119 -4 119 -10z m40 -104 c0 -100 -11 -142 -24
-93 -8 30 -8 182 1 190 18 19 23 -2 23 -97z m-490 51 c0 -5 -4 -5 -10 -2 -5 3
-10 14 -10 23 0 15 2 15 10 2 5 -8 10 -19 10 -23z m415 23 c-4 -6 -59 -10
-133 -10 -86 0 -122 3 -112 10 20 13 253 13 245 0z m15 -119 c0 -91 -3 -110
-16 -115 -15 -6 -16 2 -10 66 4 40 2 87 -3 103 -7 23 -9 9 -10 -67 -1 -119 0
-118 -144 -118 l-105 0 16 -44 c9 -25 13 -48 9 -53 -5 -4 -26 2 -47 15 -48 27
-52 27 -48 0 2 -12 13 -28 26 -34 23 -11 22 -12 -14 -16 -76 -9 -80 -5 -91 85
-14 103 -12 192 4 208 15 15 31 -20 40 -89 l6 -44 43 6 c61 8 63 -9 4 -29 -62
-21 -76 -16 -86 27 -4 18 -9 27 -12 20 -2 -7 2 -27 9 -44 11 -28 15 -30 50
-25 45 6 169 63 169 77 0 5 -9 10 -19 10 -11 0 -22 6 -25 13 -3 9 -9 7 -19 -6
-17 -21 -86 -42 -98 -30 -4 4 -9 26 -11 48 -2 31 1 40 15 43 12 2 17 -3 17
-17 0 -12 5 -21 11 -21 7 0 9 9 6 21 -6 24 1 49 14 49 5 0 10 -24 11 -52 1
-46 2 -44 7 22 l6 75 50 8 c28 4 86 5 130 2 46 -3 86 -1 95 5 8 5 16 10 18 10
1 0 2 -49 2 -109z m21 1 c1 -45 -1 -85 -5 -89 -3 -3 -6 36 -6 87 0 114 8 116
11 2z m-371 47 c0 -13 -13 -11 -35 5 -18 13 -18 14 8 9 15 -3 27 -9 27 -14z
m-10 -25 c0 -2 -7 -4 -15 -4 -8 0 -15 4 -15 10 0 5 7 7 15 4 8 -4 15 -8 15
-10z m112 -107 c-24 -11 -38 -5 -28 11 3 6 16 8 28 4 l22 -5 -22 -10z m-442
-398 c0 -6 -13 -24 -30 -39 -33 -31 -38 -24 -15 20 15 29 45 41 45 19z m455
-270 c5 -5 -13 -9 -43 -9 -38 0 -52 4 -52 14 0 11 10 13 43 9 23 -3 46 -9 52
-14z"/>
</g>
</svg>
